HIERARCHY
ROOT Hips
{
	OFFSET 0.000000 0.000000 0.000000
	CHANNELS 6 Xposition Yposition Zposition Xrotation Yrotation Zrotation
	JOINT LeftUpLeg_virtual
	{
		OFFSET 0.000000 0.000000 0.000000
		CHANNELS 3 Xrotation Yrotation Zrotation
		JOINT LeftUpLeg
		{
			OFFSET 15.427100 -6.655098 0.678600
			CHANNELS 3 Xrotation Yrotation Zrotation
			JOINT LeftLeg
			{
				OFFSET 4.081073 -39.591068 13.024000
				CHANNELS 3 Xrotation Yrotation Zrotation
				JOINT LeftFoot
				{
					OFFSET -4.081074 -37.707932 -15.979700
					CHANNELS 3 Xrotation Yrotation Zrotation
					JOINT LeftToeBase
					{
						OFFSET 5.346399 -15.068900 20.645000
						CHANNELS 3 Xrotation Yrotation Zrotation
						JOINT LeftToe_End
						{
							OFFSET 2.754700 0.931300 11.300900
							CHANNELS 3 Xrotation Yrotation Zrotation
							End Site
							{
								OFFSET 0 0 0
							}
						}
					}
				}
			}
		}
	}
	JOINT RightUpLeg_virtual
	{
		OFFSET 0.000000 0.000000 0.000000
		CHANNELS 3 Xrotation Yrotation Zrotation
		JOINT RightUpLeg
		{
			OFFSET -15.569500 -6.655098 0.678600
			CHANNELS 3 Xrotation Yrotation Zrotation
			JOINT RightLeg
			{
				OFFSET -4.081825 -39.591045 13.023800
				CHANNELS 3 Xrotation Yrotation Zrotation
				JOINT RightFoot
				{
					OFFSET 4.081824 -37.707954 -15.979600
					CHANNELS 3 Xrotation Yrotation Zrotation
					JOINT RightToeBase
					{
						OFFSET -5.346400 -15.068900 20.645000
						CHANNELS 3 Xrotation Yrotation Zrotation
						JOINT RightToe_End
						{
							OFFSET -2.754700 0.931300 11.300900
							CHANNELS 3 Xrotation Yrotation Zrotation
							End Site
							{
								OFFSET 0 0 0
							}
						}
					}
				}
			}
		}
	}
	JOINT Spine_virtual
	{
		OFFSET 0.000000 0.000000 0.000000
		CHANNELS 3 Xrotation Yrotation Zrotation
		JOINT Spine
		{
			OFFSET -0.279200 12.230698 -2.892100
			CHANNELS 3 Xrotation Yrotation Zrotation
			JOINT Spine1
			{
				OFFSET -0.232667 10.192268 -1.242267
				CHANNELS 3 Xrotation Yrotation Zrotation
				JOINT Spine1_split
				{
					OFFSET -0.232667 10.192268 -1.242267
					CHANNELS 3 Xrotation Yrotation Zrotation
					JOINT Spine2
					{
						OFFSET -0.232667 10.192268 -1.242267
						CHANNELS 3 Xrotation Yrotation Zrotation
						JOINT Neck_virtual
						{
							OFFSET 0.000000 0.000000 0.000000
							CHANNELS 3 Xrotation Yrotation Zrotation
							JOINT Neck
							{
								OFFSET -0.418800 17.814194 8.416900
								CHANNELS 3 Xrotation Yrotation Zrotation
								JOINT Head
								{
									OFFSET 0.000000 7.031097 3.806800
									CHANNELS 3 Xrotation Yrotation Zrotation
									JOINT HeadTop_End
									{
										OFFSET 0.000000 24.646606 12.978600
										CHANNELS 3 Xrotation Yrotation Zrotation
										End Site
										{
											OFFSET 0 0 0
										}
									}
								}
							}
						}
						JOINT LeftShoulder_virtual
						{
							OFFSET 0.000000 0.000000 0.000000
							CHANNELS 3 Xrotation Yrotation Zrotation
							JOINT LeftShoulder
							{
								OFFSET 8.476499 7.247704 -3.868750
								CHANNELS 3 Xrotation Yrotation Zrotation
								JOINT LeftShoulder_split
								{
									OFFSET 8.476499 7.247704 -3.868750
									CHANNELS 3 Xrotation Yrotation Zrotation
									JOINT LeftArm
									{
										OFFSET 9.308998 -2.777710 0.208600
										CHANNELS 3 Xrotation Yrotation Zrotation
										JOINT LeftForeArm
										{
											OFFSET 29.972298 0.000000 0.000000
											CHANNELS 3 Xrotation Yrotation Zrotation
											JOINT LeftHand
											{
												OFFSET 26.026505 0.000000 0.000000
												CHANNELS 3 Xrotation Yrotation Zrotation
												End Site
												{
													OFFSET 0 0 0
												}
											}
										}
									}
								}
							}
						}
						JOINT RightShoulder_virtual
						{
							OFFSET 0.000000 0.000000 0.000000
							CHANNELS 3 Xrotation Yrotation Zrotation
							JOINT RightShoulder
							{
								OFFSET -7.570500 7.247704 -3.868750
								CHANNELS 3 Xrotation Yrotation Zrotation
								JOINT RightShoulder_split
								{
									OFFSET -7.570500 7.247704 -3.868750
									CHANNELS 3 Xrotation Yrotation Zrotation
									JOINT RightArm
									{
										OFFSET -9.308998 -2.777710 0.208500
										CHANNELS 3 Xrotation Yrotation Zrotation
										JOINT RightForeArm
										{
											OFFSET -29.972300 0.000000 0.000000
											CHANNELS 3 Xrotation Yrotation Zrotation
											JOINT RightHand
											{
												OFFSET -26.026505 0.000000 0.000000
												CHANNELS 3 Xrotation Yrotation Zrotation
												End Site
												{
													OFFSET 0 0 0
												}
											}
										}
									}
								}
							}
						}
					}
				}
			}
		}
	}
}
MOTION
Frames: 10
Frame Time: 0.03333333
0.724611 106.066269 -3.654083 0.000000 0.000000 0.000000 -87.068417 -4.606289 -1.028583 6.588013 20.548465 18.526591 -1.609960 4.618225 4.505118 19.015182 29.157408 -28.426486 -5.536908 -0.045478 1.726831 0.000000 0.000000 0.000000 -88.946576 -0.099117 2.076797 11.029674 -19.973357 -13.573071 -1.208011 -2.099782 -10.944476 29.089578 -32.530801 32.210445 -11.951019 1.264913 -0.821188 0.000000 0.000000 0.000000 -87.736690 -6.751129 -4.010550 4.600715 1.562700 0.214097 16.571033 4.091559 -1.812338 0.453237 -0.181066 -0.087464 0.000000 0.000000 0.000000 14.743264 3.705519 -2.233688 -2.414550 1.072591 -4.240020 21.497877 4.762624 -8.695860 0.000000 0.000000 0.000000 16.766653 3.366485 -1.670082 -0.348310 7.065561 1.716644 -0.702638 -0.998942 -3.057907 15.907695 -51.527070 -39.527370 -0.618180 -80.791965 -0.122069 0.000000 0.000000 0.000000 15.198667 3.606724 -2.049025 0.733905 1.990989 14.646724 1.271332 2.414778 1.842938 -33.936355 34.604587 62.129730 178.498128 53.720541 -179.851448 0.000000 0.000000 0.000000 
0.687251 105.915619 -3.790337 0.000000 0.000000 0.000000 -87.036370 -5.024657 -1.365219 6.773412 20.219897 18.717606 -1.844819 4.927392 4.665782 19.141185 29.448675 -28.565116 -5.646286 -0.054830 1.485630 0.000000 0.000000 0.000000 -88.972469 -0.683137 1.572579 10.666124 -20.105987 -13.224056 -1.249066 -1.923932 -10.708404 29.721401 -31.990444 32.390222 -12.487749 1.257776 -0.746779 0.000000 0.000000 0.000000 -87.828665 -7.103169 -4.115396 4.017919 1.380019 0.161399 16.288799 3.884383 -1.691478 0.570115 -0.033007 -0.127135 0.000000 0.000000 0.000000 14.524157 3.554298 -2.135607 -1.596388 0.899399 -4.075460 22.140120 4.909256 -8.881225 0.000000 0.000000 0.000000 16.587862 3.161280 -1.559446 -0.277911 6.445291 1.464145 -0.771878 -1.100434 -2.919236 16.920610 -50.536857 -39.848413 -0.664846 -81.028651 -0.289463 0.000000 0.000000 0.000000 15.092416 3.449684 -1.896684 0.784384 1.443675 14.834227 0.878214 2.601854 2.020606 -34.246217 35.624224 61.934926 178.390047 54.907631 -179.737849 0.000000 0.000000 0.000000 
0.664344 105.754944 -3.742195 0.000000 0.000000 0.000000 -86.822967 -5.417887 -1.833684 6.798945 19.918023 18.867279 -2.170812 5.260995 4.609309 19.827506 29.710114 -28.480461 -5.894125 -0.106452 1.357142 0.000000 0.000000 0.000000 -88.674761 -1.128764 1.011693 10.313878 -20.162399 -12.905618 -1.440968 -1.751967 -10.403620 30.984870 -31.324094 32.931494 -13.361587 1.243171 -0.669335 0.000000 0.000000 0.000000 -87.625849 -7.324452 -4.271451 3.374442 1.164930 0.186694 15.839844 3.533530 -1.515413 0.695170 0.152900 -0.120733 0.000000 0.000000 0.000000 14.081169 3.256783 -1.956927 -0.745243 0.717541 -3.809901 22.739289 4.785511 -8.959604 0.000000 0.000000 0.000000 16.212480 2.804703 -1.376548 -0.189660 5.774147 1.340931 -0.828876 -1.016280 -2.789495 17.910476 -49.446547 -40.750561 -0.798669 -81.424830 -0.603044 0.000000 0.000000 0.000000 14.814066 3.148081 -1.695058 0.811378 0.972897 14.893509 0.523287 2.926489 2.246727 -33.522767 36.801363 61.061871 178.273511 55.521904 -179.558911 0.000000 0.000000 0.000000 
0.656959 105.582321 -3.615364 0.000000 0.000000 0.000000 -86.415697 -5.766899 -2.397521 6.682402 19.725603 18.944233 -2.569486 5.582874 4.347279 20.935312 29.907397 -28.198810 -6.091931 -0.183776 1.344638 0.000000 0.000000 0.000000 -88.151002 -1.466326 0.408283 10.063618 -20.153216 -12.568418 -1.916995 -1.670034 -10.105533 32.341608 -30.861858 33.468262 -14.192204 1.223403 -0.587239 0.000000 0.000000 0.000000 -87.209126 -7.441363 -4.521779 2.757333 0.930528 0.302194 15.209045 3.061474 -1.285642 0.792976 0.315343 -0.159764 0.000000 0.000000 0.000000 13.419406 2.833260 -1.709920 -0.019541 0.540994 -3.472597 23.137100 4.524158 -9.021378 0.000000 0.000000 0.000000 15.610102 2.330184 -1.138728 -0.090377 5.126228 1.295715 -0.859561 -0.889077 -2.709427 18.987099 -48.165603 -42.062699 -1.282911 -81.818993 -1.297432 0.000000 0.000000 0.000000 14.337417 2.726063 -1.453588 0.796868 0.583700 14.802277 0.244298 3.096885 2.462575 -31.816824 37.911884 59.420836 178.202805 55.419612 -179.361737 0.000000 0.000000 0.000000 
0.642550 105.428497 -3.380909 0.000000 0.000000 0.000000 -85.952808 -6.026146 -2.947494 6.494229 19.673761 18.920777 -2.989695 5.859701 3.936816 22.236897 30.013938 -27.865321 -6.253474 -0.266753 1.454263 0.000000 0.000000 0.000000 -87.501424 -1.710761 -0.158596 9.953712 -20.098720 -12.195730 -2.632601 -1.745818 -9.904542 33.375286 -30.896525 33.694798 -14.846564 1.205952 -0.522147 0.000000 0.000000 0.000000 -86.658387 -7.485991 -4.844061 2.260802 0.698886 0.486108 14.405953 2.519302 -1.019952 0.891008 0.609132 -0.223190 0.000000 0.000000 0.000000 12.574856 2.328572 -1.416296 0.455229 0.391359 -3.145724 23.263413 4.218634 -9.160014 0.000000 0.000000 0.000000 14.798551 1.796163 -0.878154 -0.001146 4.503974 1.283883 -1.043601 -0.740044 -2.720598 20.204225 -46.662384 -43.551308 -2.305832 -82.032450 -2.498527 0.000000 0.000000 0.000000 13.651262 2.243900 -1.187348 0.708246 0.270815 14.653689 0.103651 3.011275 2.586483 -29.423926 38.708799 57.205642 178.225740 54.747829 -179.200572 0.000000 0.000000 0.000000 
0.648248 105.348022 -3.214577 0.000000 0.000000 0.000000 -85.496517 -6.237819 -3.418486 6.314306 19.715920 18.811056 -3.345706 6.057676 3.474556 23.602711 30.025044 -27.664595 -6.468774 -0.338533 1.673373 0.000000 0.000000 0.000000 -86.864297 -1.967783 -0.693191 9.978813 -20.066003 -11.825791 -3.383518 -1.966087 -9.791143 34.067611 -31.346040 33.672611 -15.433285 1.202779 -0.499661 0.000000 0.000000 0.000000 -86.096584 -7.547734 -5.213880 1.924756 0.485720 0.688285 13.456501 1.962474 -0.756404 0.965834 0.839943 -0.354721 0.000000 0.000000 0.000000 11.607584 1.805064 -1.113131 0.615498 0.303396 -2.881824 23.101399 3.984548 -9.401620 0.000000 0.000000 0.000000 13.816939 1.270083 -0.627979 0.063390 3.927279 1.231007 -1.279230 -0.669925 -2.813270 21.451568 -44.990500 -45.009765 -3.740968 -82.034711 -4.037119 0.000000 0.000000 0.000000 12.804688 1.763387 -0.924942 0.530927 0.030286 14.519321 0.105895 2.718348 2.820028 -26.687212 39.099633 54.791095 178.312661 53.945421 -179.065389 0.000000 0.000000 0.000000 
0.638231 105.333580 -3.105049 0.000000 0.000000 0.000000 -85.137208 -6.439376 -3.771904 6.245420 19.836524 18.623040 -3.551665 6.189878 3.061147 24.831938 29.956131 -27.685251 -6.758530 -0.382272 1.930496 0.000000 0.000000 0.000000 -86.401114 -2.240026 -1.109448 10.046335 -20.071838 -11.582864 -3.980224 -2.156861 -9.704345 34.570972 -31.847389 33.686503 -16.130011 1.214573 -0.534278 0.000000 0.000000 0.000000 -85.627855 -7.664537 -5.557018 1.764400 0.298169 0.837511 12.388211 1.441608 -0.528411 1.074772 1.097980 -0.454792 0.000000 0.000000 0.000000 10.581201 1.328581 -0.842211 0.500678 0.288778 -2.728765 22.739151 3.895604 -9.725932 0.000000 0.000000 0.000000 12.715048 0.816824 -0.416168 0.097977 3.455113 1.064603 -1.539071 -0.633179 -2.929577 22.602611 -43.302033 -46.269494 -5.010570 -81.840044 -5.335197 0.000000 0.000000 0.000000 11.831572 1.340993 -0.705878 0.276619 -0.138808 14.438777 0.245490 2.424415 3.121548 -23.965764 39.055589 52.631549 178.422300 53.383826 -178.940779 0.000000 0.000000 0.000000 
0.610586 105.395432 -3.097244 0.000000 0.000000 0.000000 -84.935342 -6.661201 -4.003182 6.303211 20.051432 18.406562 -3.648792 6.295599 2.783159 25.674968 29.902107 -27.814084 -7.059150 -0.391560 2.167741 0.000000 0.000000 0.000000 -86.153732 -2.550384 -1.424729 10.084756 -20.141921 -11.498740 -4.265159 -2.225994 -9.592021 35.005283 -32.136330 33.901845 -16.919024 1.239419 -0.616261 0.000000 0.000000 0.000000 -85.324636 -7.869560 -5.843712 1.747678 0.136118 0.900699 11.217821 0.994623 -0.358784 1.071662 1.327707 -0.556506 0.000000 0.000000 0.000000 9.509095 0.932123 -0.625626 0.211424 0.331098 -2.668156 22.309983 3.937493 -10.030461 0.000000 0.000000 0.000000 11.540119 0.464897 -0.251764 0.088889 3.115541 0.831984 -1.731832 -0.647757 -3.059900 23.525984 -41.759841 -47.294706 -5.754565 -81.546243 -6.035740 0.000000 0.000000 0.000000 10.779315 1.008206 -0.552328 -0.045619 -0.234235 14.412968 0.523682 2.266786 3.330016 -21.485309 38.683309 50.997969 178.533358 53.221681 -178.838518 0.000000 0.000000 0.000000 
0.562377 105.491859 -3.215141 0.000000 0.000000 0.000000 -84.863181 -6.932729 -4.161311 6.495276 20.381015 18.201554 -3.718359 6.406694 2.689979 25.966371 29.904245 -27.957689 -7.245155 -0.366368 2.320153 0.000000 0.000000 0.000000 -86.122777 -2.861249 -1.623034 10.131134 -20.307913 -11.525674 -4.273176 -2.190765 -9.433756 35.398080 -32.180908 34.237337 -17.531518 1.263607 -0.696042 0.000000 0.000000 0.000000 -85.231226 -8.141976 -6.060430 1.808403 -0.010449 0.871803 9.979390 0.633864 -0.252404 1.019045 1.461384 -0.568270 0.000000 0.000000 0.000000 8.413121 0.631857 -0.472087 -0.148605 0.394530 -2.645124 21.897144 4.058647 -10.180160 0.000000 0.000000 0.000000 10.324564 0.216514 -0.133641 0.044196 2.958176 0.559885 -1.798682 -0.705802 -3.214710 24.191246 -40.473075 -48.135611 -5.777230 -81.286546 -5.981880 0.000000 0.000000 0.000000 9.697223 0.758972 -0.468301 -0.405010 -0.236191 14.370009 0.862006 2.216362 3.441820 -19.208258 38.147395 49.879990 178.618913 53.506179 -178.762143 0.000000 0.000000 0.000000 
0.481907 105.552269 -3.329319 0.000000 0.000000 0.000000 -84.937473 -7.202594 -4.267715 6.771009 20.820368 18.048968 -3.806146 6.498657 2.751105 25.702629 29.917332 -28.099086 -7.314518 -0.314857 2.396885 0.000000 0.000000 0.000000 -86.272570 -3.115045 -1.722273 10.198845 -20.552978 -11.576705 -4.147782 -2.091445 -9.243353 35.598543 -32.124244 34.476814 -17.695266 1.280547 -0.735411 0.000000 0.000000 0.000000 -85.311849 -8.416316 -6.204305 1.927773 -0.157009 0.779282 8.702071 0.350961 -0.193900 0.892786 1.578069 -0.477656 0.000000 0.000000 0.000000 7.291829 0.403882 -0.366509 -0.514176 0.464127 -2.620441 21.544314 4.207362 -10.074309 0.000000 0.000000 0.000000 9.102310 0.043336 -0.049036 -0.022479 2.974065 0.300346 -1.855823 -0.702438 -3.430167 24.665739 -39.403109 -48.923528 -5.131933 -81.138713 -5.266435 0.000000 0.000000 0.000000 8.591630 0.575252 -0.433654 -0.769874 -0.157802 14.273547 1.264307 2.252390 3.337310 -16.958783 37.462245 49.073953 178.675836 54.100323 -178.728210 0.000000 0.000000 0.000000 
